<svg width="20" height="14" viewBox="0 0 20 14" fill="none" xmlns="http://www.w3.org/2000/svg">
<path d="M9.95756 9.11651C12.8169 9.11651 15.2583 9.56982 15.2583 11.3838C15.2583 13.197 12.8326 13.6668 9.95756 13.6668C7.09825 13.6668 4.65678 13.2135 4.65678 11.4003C4.65678 9.58633 7.08258 9.11651 9.95756 9.11651ZM14.5293 8.02423C15.6224 8.00396 16.7976 8.15406 17.2319 8.26064C18.1519 8.44151 18.7571 8.81076 19.0078 9.34737C19.2197 9.78792 19.2197 10.299 19.0078 10.7388C18.6242 11.5711 17.3878 11.8383 16.9073 11.9073C16.8081 11.9224 16.7282 11.836 16.7387 11.7362C16.9842 9.42992 15.0314 8.33644 14.5263 8.08502C14.5046 8.07376 14.5002 8.0565 14.5024 8.04599C14.5039 8.03849 14.5129 8.02648 14.5293 8.02423ZM5.26553 8.02267L5.47137 8.02453C5.48779 8.02678 5.496 8.03879 5.49749 8.04554C5.49973 8.0568 5.49525 8.07331 5.47436 8.08532C4.96846 8.33674 3.01573 9.43022 3.26122 11.7358C3.27167 11.8363 3.19257 11.9219 3.09333 11.9076C2.6128 11.8386 1.3764 11.5714 0.992868 10.7391C0.780209 10.2986 0.780209 9.78822 0.992868 9.34767C1.24358 8.81106 1.84798 8.44181 2.768 8.26019C3.20302 8.15436 4.37749 8.00426 5.47137 8.02453L5.26553 8.02267ZM9.95756 0.333496C11.9043 0.333496 13.4653 1.90205 13.4653 3.86087C13.4653 5.81894 11.9043 7.389 9.95756 7.389C8.01081 7.389 6.44982 5.81894 6.44982 3.86087C6.44982 1.90205 8.01081 0.333496 9.95756 0.333496ZM14.7195 0.921742C16.5999 0.921742 18.0766 2.70119 17.5736 4.68328C17.2341 6.01767 16.0052 6.90402 14.636 6.868C14.4987 6.86425 14.3636 6.85149 14.233 6.82897C14.1383 6.81246 14.0905 6.70514 14.1442 6.62558C14.6666 5.85256 14.9643 4.92269 14.9643 3.92452C14.9643 2.88281 14.639 1.91166 14.0741 1.11537C14.0562 1.09061 14.0428 1.05233 14.0607 1.02381C14.0756 1.00055 14.1032 0.988537 14.1293 0.982533C14.3196 0.943507 14.5151 0.921742 14.7195 0.921742ZM5.27998 0.921667C5.48443 0.921667 5.67993 0.943432 5.87095 0.982458C5.89632 0.988462 5.92467 1.00122 5.93959 1.02374C5.95676 1.05226 5.94407 1.09053 5.92616 1.1153C5.36131 1.91158 5.03598 2.88274 5.03598 3.92444C5.03598 4.92261 5.3337 5.85249 5.85602 6.62551C5.90975 6.70506 5.86199 6.81239 5.76723 6.8289C5.6359 6.85216 5.50159 6.86417 5.3643 6.86792C3.99508 6.90395 2.76614 6.0176 2.42663 4.6832C1.92297 2.70112 3.39964 0.921667 5.27998 0.921667Z" fill="#818DA9"/>
</svg>
