<svg width="20" height="20" viewBox="0 0 20 20" fill="none" xmlns="http://www.w3.org/2000/svg">
<path d="M12.8747 3.15009C12.8414 3.35842 12.8247 3.56675 12.8247 3.77509C12.8247 5.65009 14.3414 7.16592 16.2081 7.16592C16.4164 7.16592 16.6164 7.14175 16.8247 7.10842V13.8326C16.8247 16.6584 15.1581 18.3334 12.3247 18.3334H6.16722C3.33305 18.3334 1.66638 16.6584 1.66638 13.8326V7.66675C1.66638 4.83342 3.33305 3.15009 6.16722 3.15009H12.8747ZM13.0422 8.21675C12.8164 8.19175 12.5922 8.29175 12.458 8.47509L10.4422 11.0834L8.13305 9.26676C7.99138 9.15842 7.82472 9.11592 7.65805 9.13342C7.49222 9.15842 7.34222 9.24926 7.24138 9.38259L4.77555 12.5918L4.72472 12.6668C4.58305 12.9326 4.64972 13.2743 4.89972 13.4584C5.01638 13.5334 5.14138 13.5834 5.28305 13.5834C5.47555 13.5918 5.65805 13.4909 5.77472 13.3334L7.86638 10.6409L10.2414 12.4251L10.3164 12.4743C10.583 12.6159 10.9164 12.5501 11.108 12.2993L13.5164 9.19175L13.4831 9.20842C13.6164 9.02509 13.6414 8.79175 13.5497 8.58342C13.4589 8.37509 13.258 8.23342 13.0422 8.21675ZM16.3248 1.6665C17.4331 1.6665 18.3331 2.5665 18.3331 3.67484C18.3331 4.78317 17.4331 5.68317 16.3248 5.68317C15.2165 5.68317 14.3165 4.78317 14.3165 3.67484C14.3165 2.5665 15.2165 1.6665 16.3248 1.6665Z" fill="#818DA9"/>
</svg>
