<svg width="68" height="68" viewBox="0 0 68 68" fill="none" xmlns="http://www.w3.org/2000/svg">
<g clip-path="url(#clip0_5_12091)">
<path d="M34 65.3664C51.3231 65.3664 65.3663 51.3233 65.3663 34.0001C65.3663 16.677 51.3231 2.63379 34 2.63379C16.6769 2.63379 2.63367 16.677 2.63367 34.0001C2.63367 51.3233 16.6769 65.3664 34 65.3664Z" fill="#93CCAF"/>
<path d="M34 68C15.2539 68 0 52.7487 0 34C0 15.2539 15.2539 0 34 0C52.7487 0 68 15.2539 68 34C68 52.7487 52.7487 68 34 68ZM34 5.26721C18.1561 5.26721 5.26721 18.1561 5.26721 34C5.26721 49.8439 18.1561 62.7328 34 62.7328C49.8439 62.7328 62.7328 49.8412 62.7328 34C62.7328 18.1561 49.8439 5.26721 34 5.26721Z" fill="#93CCAF"/>
<path d="M29.8915 46.5096C29.1857 46.5096 28.5115 46.2277 28.0137 45.7221L18.2957 35.846C17.2764 34.8084 17.2896 33.144 18.3273 32.1221C19.3649 31.1056 21.032 31.1161 22.0512 32.1537L29.8151 40.044L45.8776 22.354C46.8599 21.2769 48.5244 21.2005 49.5962 22.175C50.6733 23.1521 50.7524 24.8165 49.7753 25.8963L31.8404 45.6483C31.3532 46.1855 30.6685 46.4963 29.9442 46.5121C29.9258 46.5096 29.91 46.5096 29.8915 46.5096Z" fill="#4BAA79"/>
</g>
<defs>
<clipPath id="clip0_5_12091">
<rect width="68" height="68" fill="white"/>
</clipPath>
</defs>
</svg>
