<svg width="68" height="68" viewBox="0 0 68 68" fill="none" xmlns="http://www.w3.org/2000/svg">
<g clip-path="url(#clip0_31_16233)">
<path d="M34 65.3663C51.3232 65.3663 65.3663 51.3231 65.3663 34C65.3663 16.6769 51.3232 2.63367 34 2.63367C16.6769 2.63367 2.63369 16.6769 2.63369 34C2.63369 51.3231 16.6769 65.3663 34 65.3663Z" fill="#FCEEEE"/>
<path d="M34 68C15.2539 68 0 52.7487 0 34C0 15.2539 15.2539 0 34 0C52.7487 0 68 15.2539 68 34C68 52.7487 52.7487 68 34 68ZM34 5.26721C18.1561 5.26721 5.26721 18.1561 5.26721 34C5.26721 49.8439 18.1561 62.7328 34 62.7328C49.8439 62.7328 62.7328 49.8412 62.7328 34C62.7328 18.1561 49.8439 5.26721 34 5.26721Z" fill="#FCEEEE"/>
<path d="M29.8915 46.5097C29.1858 46.5097 28.5115 46.2278 28.0137 45.7222L18.2957 35.8462C17.2765 34.8085 17.2896 33.1441 18.3273 32.1222C19.365 31.1057 21.032 31.1162 22.0512 32.1538L29.8152 40.0441L45.8776 22.3541C46.8599 21.277 48.5245 21.2007 49.5963 22.1751C50.6734 23.1522 50.7524 24.8166 49.7753 25.8964L31.8404 45.6484C31.3533 46.1856 30.6685 46.4964 29.9443 46.5122C29.9258 46.5097 29.91 46.5097 29.8915 46.5097Z" fill="#E05453"/>
</g>
<defs>
<clipPath id="clip0_31_16233">
<rect width="68" height="68" fill="white"/>
</clipPath>
</defs>
</svg>
