<svg width="20" height="20" viewBox="0 0 20 20" fill="none" xmlns="http://www.w3.org/2000/svg">
<path d="M6.59996 11.2246C7.77496 11.2246 8.71663 12.1754 8.71663 13.3588V16.1996C8.71663 17.3746 7.77496 18.3329 6.59996 18.3329H3.78329C2.61663 18.3329 1.66663 17.3746 1.66663 16.1996V13.3588C1.66663 12.1754 2.61663 11.2246 3.78329 11.2246H6.59996ZM16.2167 11.2246C17.3834 11.2246 18.3334 12.1754 18.3334 13.3588V16.1996C18.3334 17.3746 17.3834 18.3329 16.2167 18.3329H13.4C12.225 18.3329 11.2834 17.3746 11.2834 16.1996V13.3588C11.2834 12.1754 12.225 11.2246 13.4 11.2246H16.2167ZM6.59996 1.6665C7.77496 1.6665 8.71663 2.62484 8.71663 3.80067V6.6415C8.71663 7.82484 7.77496 8.77484 6.59996 8.77484H3.78329C2.61663 8.77484 1.66663 7.82484 1.66663 6.6415V3.80067C1.66663 2.62484 2.61663 1.6665 3.78329 1.6665H6.59996ZM16.2167 1.6665C17.3834 1.6665 18.3334 2.62484 18.3334 3.80067V6.6415C18.3334 7.82484 17.3834 8.77484 16.2167 8.77484H13.4C12.225 8.77484 11.2834 7.82484 11.2834 6.6415V3.80067C11.2834 2.62484 12.225 1.6665 13.4 1.6665H16.2167Z" />
</svg>
