<svg width="102" height="102" viewBox="0 0 102 102" fill="none" xmlns="http://www.w3.org/2000/svg">
<circle cx="51" cy="51" r="51" fill="#FCEEEE"/>
<path d="M69.7279 42.854C69.7279 42.854 68.3025 60.5334 67.4756 67.9805C67.0819 71.5374 64.8848 73.6216 61.2859 73.6872C54.4373 73.8106 47.5808 73.8185 40.7348 73.6741C37.2724 73.6033 35.112 71.4928 34.7261 67.9989C33.894 60.4861 32.4765 42.854 32.4765 42.854" stroke="#E05453" stroke-width="5" stroke-linecap="round" stroke-linejoin="round"/>
<path d="M73.359 34.3792H28.8443" stroke="#E05453" stroke-width="5" stroke-linecap="round" stroke-linejoin="round"/>
<path d="M64.7816 34.3792C62.721 34.3792 60.9465 32.9223 60.5422 30.9037L59.9043 27.7117C59.5106 26.2391 58.1771 25.2206 56.6572 25.2206H45.5456C44.0257 25.2206 42.6922 26.2391 42.2985 27.7117L41.6606 30.9037C41.2563 32.9223 39.4818 34.3792 37.4212 34.3792" stroke="#E05453" stroke-width="5" stroke-linecap="round" stroke-linejoin="round"/>
</svg>
