<svg width="20" height="20" viewBox="0 0 20 20" fill="none" xmlns="http://www.w3.org/2000/svg">
<rect width="20" height="20" rx="4" fill="#FDF2F2"/>
<path d="M14.8832 8.31226C14.8832 8.31226 14.5212 12.8023 14.3112 14.6936C14.2112 15.5969 13.6532 16.1263 12.7392 16.1429C10.9998 16.1743 9.25849 16.1763 7.51982 16.1396C6.64049 16.1216 6.09182 15.5856 5.99382 14.6983C5.78249 12.7903 5.42249 8.31226 5.42249 8.31226" stroke="#E05453" stroke-linecap="round" stroke-linejoin="round"/>
<path d="M15.8053 6.15987H4.5" stroke="#E05453" stroke-linecap="round" stroke-linejoin="round"/>
<path d="M13.6269 6.15986C13.1036 6.15986 12.6529 5.78986 12.5502 5.2772L12.3882 4.46653C12.2882 4.09253 11.9496 3.83386 11.5636 3.83386H8.74156C8.35556 3.83386 8.01689 4.09253 7.91689 4.46653L7.75489 5.2772C7.65222 5.78986 7.20156 6.15986 6.67822 6.15986" stroke="#E05453" stroke-linecap="round" stroke-linejoin="round"/>
</svg>
