<svg width="14" height="14" viewBox="0 0 14 14" fill="none" xmlns="http://www.w3.org/2000/svg">
<path fill-rule="evenodd" clip-rule="evenodd" d="M9.89004 0.833496H4.11071C2.09671 0.833496 0.834045 2.2595 0.834045 4.2775V9.72283C0.834045 11.7408 2.09005 13.1668 4.11071 13.1668H9.88938C11.91 13.1668 13.1674 11.7408 13.1674 9.72283V4.2775C13.1674 2.2595 11.91 0.833496 9.89004 0.833496Z" stroke="#4BAA79" stroke-linecap="round" stroke-linejoin="round"/>
<path d="M4.01421 7.79833C3.57355 7.79833 3.21555 7.44033 3.21555 7.00033C3.21555 6.56033 3.57355 6.20166 4.01421 6.20166C4.45488 6.20166 4.81288 6.56033 4.81288 7.00033C4.81288 7.44033 4.45488 7.79833 4.01421 7.79833Z" fill="#4BAA79"/>
<path d="M7.00054 7.79833C6.55987 7.79833 6.20187 7.44033 6.20187 7.00033C6.20187 6.56033 6.55987 6.20166 7.00054 6.20166C7.44121 6.20166 7.79921 6.56033 7.79921 7.00033C7.79921 7.44033 7.44121 7.79833 7.00054 7.79833Z" fill="#4BAA79"/>
<path d="M9.98623 7.79833C9.54556 7.79833 9.18756 7.44033 9.18756 7.00033C9.18756 6.56033 9.54556 6.20166 9.98623 6.20166C10.4269 6.20166 10.7849 6.56033 10.7849 7.00033C10.7849 7.44033 10.4269 7.79833 9.98623 7.79833Z" fill="#4BAA79"/>
</svg>
