<svg width="20" height="21" viewBox="0 0 20 21" fill="none" xmlns="http://www.w3.org/2000/svg">
<path d="M8.30267 16.5231C8.71926 16.435 11.2578 16.435 11.6743 16.5231C12.0305 16.6053 12.4156 16.7975 12.4156 17.2172C12.3949 17.6167 12.1605 17.9709 11.8367 18.1958C11.4168 18.5232 10.924 18.7305 10.4088 18.8052C10.1239 18.8421 9.84398 18.8429 9.56902 18.8052C9.05304 18.7305 8.56025 18.5232 8.14117 18.195C7.81651 17.9709 7.58212 17.6167 7.56142 17.2172C7.56142 16.7975 7.94654 16.6053 8.30267 16.5231ZM10.0377 2.1665C11.7712 2.1665 13.5419 2.98902 14.5937 4.35372C15.2762 5.23247 15.5892 6.11038 15.5892 7.47509V7.83011C15.5892 8.87672 15.8659 9.49361 16.4746 10.2045C16.9359 10.7282 17.0834 11.4005 17.0834 12.1299C17.0834 12.8584 16.844 13.55 16.3645 14.1114C15.7367 14.7846 14.8513 15.2143 13.9477 15.289C12.6383 15.4006 11.3281 15.4946 10.0004 15.4946C8.67197 15.4946 7.36256 15.4384 6.05315 15.289C5.14873 15.2143 4.26337 14.7846 3.63641 14.1114C3.15687 13.55 2.91669 12.8584 2.91669 12.1299C2.91669 11.4005 3.06494 10.7282 3.52543 10.2045C4.15322 9.49361 4.41162 8.87672 4.41162 7.83011V7.47509C4.41162 6.07345 4.76113 5.15694 5.48085 4.25972C6.55091 2.95125 8.26615 2.1665 9.96317 2.1665H10.0377Z" fill="#2D416F"/>
<circle cx="15" cy="4.5" r="2.5" fill="#E05453" stroke="white"/>
</svg>
