<svg width="24" height="25" viewBox="0 0 24 25" fill="none" xmlns="http://www.w3.org/2000/svg">
<rect y="0.5" width="24" height="24" rx="4" fill="#2D416F"/>
<path d="M6.375 15.625H7.87312C8.37558 15.625 8.87061 15.5038 9.31626 15.2717C9.7619 15.0396 10.145 14.7035 10.4331 14.2919L10.5438 14.1338M12.8312 10.8669L12.9419 10.7081C13.23 10.2965 13.6131 9.96037 14.0587 9.7283C14.5044 9.49623 14.9994 9.37504 15.5019 9.375H17.625" stroke="white" stroke-width="1.5" stroke-linecap="round" stroke-linejoin="round"/>
<path d="M15.75 7.5L17.625 9.375L15.75 11.25M6.375 9.375H7.87312C8.37558 9.37504 8.87061 9.49623 9.31626 9.7283C9.7619 9.96037 10.145 10.2965 10.4331 10.7081L12.9419 14.2919C13.23 14.7035 13.6131 15.0396 14.0587 15.2717C14.5044 15.5038 14.9994 15.625 15.5019 15.625H17.625" stroke="white" stroke-width="1.5" stroke-linecap="round" stroke-linejoin="round"/>
<path d="M15.75 17.5L17.625 15.625L15.75 13.75" stroke="white" stroke-width="1.5" stroke-linecap="round" stroke-linejoin="round"/>
</svg>
