<svg width="20" height="20" viewBox="0 0 20 20" fill="none" xmlns="http://www.w3.org/2000/svg">
<path d="M12.8125 12.1875L13.75 12.1875L13.75 11.25C13.75 10.9185 13.6183 10.6005 13.3839 10.3661C13.1495 10.1317 12.8315 10 12.5 10L7.5 10C7.16848 10 6.85054 10.1317 6.61612 10.3661C6.3817 10.6005 6.25 10.9185 6.25 11.25L6.25 12.1875L7.1875 12.1875C7.51902 12.1875 7.83696 12.3192 8.07138 12.5536C8.3058 12.788 8.4375 13.106 8.4375 13.4375L8.4375 16.5625C8.4375 16.894 8.3058 17.212 8.07138 17.4464C7.83696 17.6808 7.51902 17.8125 7.1875 17.8125L4.0625 17.8125C3.73098 17.8125 3.41304 17.6808 3.17862 17.4464C2.9442 17.212 2.8125 16.894 2.8125 16.5625L2.8125 13.4375C2.8125 13.106 2.9442 12.788 3.17862 12.5536C3.41304 12.3192 3.73098 12.1875 4.0625 12.1875L5 12.1875L5 11.25C5.00206 10.5876 5.26611 9.9529 5.73451 9.48451C6.2029 9.01611 6.83759 8.75206 7.5 8.75L9.375 8.75L9.375 6.5625L8.75 6.5625C8.41848 6.5625 8.10054 6.4308 7.86612 6.19638C7.6317 5.96196 7.5 5.64402 7.5 5.3125L7.5 2.8125C7.5 2.48098 7.6317 2.16304 7.86612 1.92862C8.10054 1.6942 8.41848 1.5625 8.75 1.5625L11.25 1.5625C11.5815 1.5625 11.8995 1.6942 12.1339 1.92862C12.3683 2.16304 12.5 2.48098 12.5 2.8125L12.5 5.3125C12.5 5.64402 12.3683 5.96196 12.1339 6.19638C11.8995 6.4308 11.5815 6.5625 11.25 6.5625L10.625 6.5625L10.625 8.75L12.5 8.75C13.1624 8.75206 13.7971 9.01611 14.2655 9.48451C14.7339 9.9529 14.9979 10.5876 15 11.25L15 12.1875L15.9375 12.1875C16.269 12.1875 16.587 12.3192 16.8214 12.5536C17.0558 12.788 17.1875 13.106 17.1875 13.4375L17.1875 16.5625C17.1875 16.894 17.0558 17.212 16.8214 17.4464C16.587 17.6808 16.269 17.8125 15.9375 17.8125L12.8125 17.8125C12.481 17.8125 12.163 17.6808 11.9286 17.4464C11.6942 17.212 11.5625 16.894 11.5625 16.5625L11.5625 13.4375C11.5625 13.106 11.6942 12.788 11.9286 12.5536C12.163 12.3192 12.481 12.1875 12.8125 12.1875Z" fill="#818DA9"/>
</svg>
